<mxfile host="app.diagrams.net" agent="Mozilla/5.0 (Windows NT 10.0; Win64; x64) AppleWebKit/537.36 (KHTML, like Gecko) Chrome/131.0.0.0 Safari/537.36" version="26.0.4" pages="2">
  <diagram name="ModeloRelacional" id="Sjuj-3gqKvTOic_HNlAD">
    <mxGraphModel dx="1050" dy="522" grid="1" gridSize="10" guides="1" tooltips="1" connect="1" arrows="1" fold="1" page="1" pageScale="1" pageWidth="827" pageHeight="1169" math="0" shadow="0">
      <root>
        <mxCell id="0" />
        <mxCell id="1" parent="0" />
        <mxCell id="08mX7MxqLNH22tpMBtNo-208" value="" style="rounded=0;whiteSpace=wrap;html=1;" vertex="1" parent="1">
          <mxGeometry x="10" y="10" width="810" height="290" as="geometry" />
        </mxCell>
        <mxCell id="08mX7MxqLNH22tpMBtNo-1" value="Inmuebles" style="shape=table;startSize=30;container=1;collapsible=1;childLayout=tableLayout;fixedRows=1;rowLines=0;fontStyle=1;align=center;resizeLast=1;fontSize=15;" vertex="1" parent="1">
          <mxGeometry x="104.75" y="20" width="127.5" height="270" as="geometry">
            <mxRectangle x="32.5" y="140" width="80" height="30" as="alternateBounds" />
          </mxGeometry>
        </mxCell>
        <mxCell id="08mX7MxqLNH22tpMBtNo-2" value="" style="shape=tableRow;horizontal=0;startSize=0;swimlaneHead=0;swimlaneBody=0;fillColor=none;collapsible=0;dropTarget=0;points=[[0,0.5],[1,0.5]];portConstraint=eastwest;top=0;left=0;right=0;bottom=1;fontSize=15;" vertex="1" parent="08mX7MxqLNH22tpMBtNo-1">
          <mxGeometry y="30" width="127.5" height="30" as="geometry" />
        </mxCell>
        <mxCell id="08mX7MxqLNH22tpMBtNo-3" value="PK" style="shape=partialRectangle;connectable=0;fillColor=none;top=0;left=0;bottom=0;right=0;fontStyle=1;overflow=hidden;fontSize=15;" vertex="1" parent="08mX7MxqLNH22tpMBtNo-2">
          <mxGeometry width="30" height="30" as="geometry">
            <mxRectangle width="30" height="30" as="alternateBounds" />
          </mxGeometry>
        </mxCell>
        <mxCell id="08mX7MxqLNH22tpMBtNo-4" value="Place_ID" style="shape=partialRectangle;connectable=0;fillColor=none;top=0;left=0;bottom=0;right=0;align=left;spacingLeft=6;fontStyle=5;overflow=hidden;fontSize=15;" vertex="1" parent="08mX7MxqLNH22tpMBtNo-2">
          <mxGeometry x="30" width="97.5" height="30" as="geometry">
            <mxRectangle width="97.5" height="30" as="alternateBounds" />
          </mxGeometry>
        </mxCell>
        <mxCell id="08mX7MxqLNH22tpMBtNo-5" value="" style="shape=tableRow;horizontal=0;startSize=0;swimlaneHead=0;swimlaneBody=0;fillColor=none;collapsible=0;dropTarget=0;points=[[0,0.5],[1,0.5]];portConstraint=eastwest;top=0;left=0;right=0;bottom=0;fontSize=15;" vertex="1" parent="08mX7MxqLNH22tpMBtNo-1">
          <mxGeometry y="60" width="127.5" height="30" as="geometry" />
        </mxCell>
        <mxCell id="08mX7MxqLNH22tpMBtNo-6" value="" style="shape=partialRectangle;connectable=0;fillColor=none;top=0;left=0;bottom=0;right=0;editable=1;overflow=hidden;fontSize=15;" vertex="1" parent="08mX7MxqLNH22tpMBtNo-5">
          <mxGeometry width="30" height="30" as="geometry">
            <mxRectangle width="30" height="30" as="alternateBounds" />
          </mxGeometry>
        </mxCell>
        <mxCell id="08mX7MxqLNH22tpMBtNo-7" value="Titulo" style="shape=partialRectangle;connectable=0;fillColor=none;top=0;left=0;bottom=0;right=0;align=left;spacingLeft=6;overflow=hidden;fontSize=15;" vertex="1" parent="08mX7MxqLNH22tpMBtNo-5">
          <mxGeometry x="30" width="97.5" height="30" as="geometry">
            <mxRectangle width="97.5" height="30" as="alternateBounds" />
          </mxGeometry>
        </mxCell>
        <mxCell id="08mX7MxqLNH22tpMBtNo-8" value="" style="shape=tableRow;horizontal=0;startSize=0;swimlaneHead=0;swimlaneBody=0;fillColor=none;collapsible=0;dropTarget=0;points=[[0,0.5],[1,0.5]];portConstraint=eastwest;top=0;left=0;right=0;bottom=0;fontSize=15;" vertex="1" parent="08mX7MxqLNH22tpMBtNo-1">
          <mxGeometry y="90" width="127.5" height="30" as="geometry" />
        </mxCell>
        <mxCell id="08mX7MxqLNH22tpMBtNo-9" value="" style="shape=partialRectangle;connectable=0;fillColor=none;top=0;left=0;bottom=0;right=0;editable=1;overflow=hidden;fontSize=15;" vertex="1" parent="08mX7MxqLNH22tpMBtNo-8">
          <mxGeometry width="30" height="30" as="geometry">
            <mxRectangle width="30" height="30" as="alternateBounds" />
          </mxGeometry>
        </mxCell>
        <mxCell id="08mX7MxqLNH22tpMBtNo-10" value="Moneda" style="shape=partialRectangle;connectable=0;fillColor=none;top=0;left=0;bottom=0;right=0;align=left;spacingLeft=6;overflow=hidden;fontSize=15;" vertex="1" parent="08mX7MxqLNH22tpMBtNo-8">
          <mxGeometry x="30" width="97.5" height="30" as="geometry">
            <mxRectangle width="97.5" height="30" as="alternateBounds" />
          </mxGeometry>
        </mxCell>
        <mxCell id="08mX7MxqLNH22tpMBtNo-172" style="shape=tableRow;horizontal=0;startSize=0;swimlaneHead=0;swimlaneBody=0;fillColor=none;collapsible=0;dropTarget=0;points=[[0,0.5],[1,0.5]];portConstraint=eastwest;top=0;left=0;right=0;bottom=0;fontSize=15;" vertex="1" parent="08mX7MxqLNH22tpMBtNo-1">
          <mxGeometry y="120" width="127.5" height="30" as="geometry" />
        </mxCell>
        <mxCell id="08mX7MxqLNH22tpMBtNo-173" style="shape=partialRectangle;connectable=0;fillColor=none;top=0;left=0;bottom=0;right=0;editable=1;overflow=hidden;fontSize=15;" vertex="1" parent="08mX7MxqLNH22tpMBtNo-172">
          <mxGeometry width="30" height="30" as="geometry">
            <mxRectangle width="30" height="30" as="alternateBounds" />
          </mxGeometry>
        </mxCell>
        <mxCell id="08mX7MxqLNH22tpMBtNo-174" value="Precio" style="shape=partialRectangle;connectable=0;fillColor=none;top=0;left=0;bottom=0;right=0;align=left;spacingLeft=6;overflow=hidden;fontSize=15;" vertex="1" parent="08mX7MxqLNH22tpMBtNo-172">
          <mxGeometry x="30" width="97.5" height="30" as="geometry">
            <mxRectangle width="97.5" height="30" as="alternateBounds" />
          </mxGeometry>
        </mxCell>
        <mxCell id="08mX7MxqLNH22tpMBtNo-175" style="shape=tableRow;horizontal=0;startSize=0;swimlaneHead=0;swimlaneBody=0;fillColor=none;collapsible=0;dropTarget=0;points=[[0,0.5],[1,0.5]];portConstraint=eastwest;top=0;left=0;right=0;bottom=0;fontSize=15;" vertex="1" parent="08mX7MxqLNH22tpMBtNo-1">
          <mxGeometry y="150" width="127.5" height="30" as="geometry" />
        </mxCell>
        <mxCell id="08mX7MxqLNH22tpMBtNo-176" style="shape=partialRectangle;connectable=0;fillColor=none;top=0;left=0;bottom=0;right=0;editable=1;overflow=hidden;fontSize=15;" vertex="1" parent="08mX7MxqLNH22tpMBtNo-175">
          <mxGeometry width="30" height="30" as="geometry">
            <mxRectangle width="30" height="30" as="alternateBounds" />
          </mxGeometry>
        </mxCell>
        <mxCell id="08mX7MxqLNH22tpMBtNo-177" value="Direccion" style="shape=partialRectangle;connectable=0;fillColor=none;top=0;left=0;bottom=0;right=0;align=left;spacingLeft=6;overflow=hidden;fontSize=15;" vertex="1" parent="08mX7MxqLNH22tpMBtNo-175">
          <mxGeometry x="30" width="97.5" height="30" as="geometry">
            <mxRectangle width="97.5" height="30" as="alternateBounds" />
          </mxGeometry>
        </mxCell>
        <mxCell id="08mX7MxqLNH22tpMBtNo-178" style="shape=tableRow;horizontal=0;startSize=0;swimlaneHead=0;swimlaneBody=0;fillColor=none;collapsible=0;dropTarget=0;points=[[0,0.5],[1,0.5]];portConstraint=eastwest;top=0;left=0;right=0;bottom=0;fontSize=15;" vertex="1" parent="08mX7MxqLNH22tpMBtNo-1">
          <mxGeometry y="180" width="127.5" height="30" as="geometry" />
        </mxCell>
        <mxCell id="08mX7MxqLNH22tpMBtNo-179" style="shape=partialRectangle;connectable=0;fillColor=none;top=0;left=0;bottom=0;right=0;editable=1;overflow=hidden;fontSize=15;" vertex="1" parent="08mX7MxqLNH22tpMBtNo-178">
          <mxGeometry width="30" height="30" as="geometry">
            <mxRectangle width="30" height="30" as="alternateBounds" />
          </mxGeometry>
        </mxCell>
        <mxCell id="08mX7MxqLNH22tpMBtNo-180" value="Enlace" style="shape=partialRectangle;connectable=0;fillColor=none;top=0;left=0;bottom=0;right=0;align=left;spacingLeft=6;overflow=hidden;fontSize=15;" vertex="1" parent="08mX7MxqLNH22tpMBtNo-178">
          <mxGeometry x="30" width="97.5" height="30" as="geometry">
            <mxRectangle width="97.5" height="30" as="alternateBounds" />
          </mxGeometry>
        </mxCell>
        <mxCell id="08mX7MxqLNH22tpMBtNo-181" style="shape=tableRow;horizontal=0;startSize=0;swimlaneHead=0;swimlaneBody=0;fillColor=none;collapsible=0;dropTarget=0;points=[[0,0.5],[1,0.5]];portConstraint=eastwest;top=0;left=0;right=0;bottom=0;fontSize=15;" vertex="1" parent="08mX7MxqLNH22tpMBtNo-1">
          <mxGeometry y="210" width="127.5" height="30" as="geometry" />
        </mxCell>
        <mxCell id="08mX7MxqLNH22tpMBtNo-182" style="shape=partialRectangle;connectable=0;fillColor=none;top=0;left=0;bottom=0;right=0;editable=1;overflow=hidden;fontSize=15;" vertex="1" parent="08mX7MxqLNH22tpMBtNo-181">
          <mxGeometry width="30" height="30" as="geometry">
            <mxRectangle width="30" height="30" as="alternateBounds" />
          </mxGeometry>
        </mxCell>
        <mxCell id="08mX7MxqLNH22tpMBtNo-183" value="Latitud" style="shape=partialRectangle;connectable=0;fillColor=none;top=0;left=0;bottom=0;right=0;align=left;spacingLeft=6;overflow=hidden;fontSize=15;" vertex="1" parent="08mX7MxqLNH22tpMBtNo-181">
          <mxGeometry x="30" width="97.5" height="30" as="geometry">
            <mxRectangle width="97.5" height="30" as="alternateBounds" />
          </mxGeometry>
        </mxCell>
        <mxCell id="08mX7MxqLNH22tpMBtNo-184" style="shape=tableRow;horizontal=0;startSize=0;swimlaneHead=0;swimlaneBody=0;fillColor=none;collapsible=0;dropTarget=0;points=[[0,0.5],[1,0.5]];portConstraint=eastwest;top=0;left=0;right=0;bottom=0;fontSize=15;" vertex="1" parent="08mX7MxqLNH22tpMBtNo-1">
          <mxGeometry y="240" width="127.5" height="30" as="geometry" />
        </mxCell>
        <mxCell id="08mX7MxqLNH22tpMBtNo-185" style="shape=partialRectangle;connectable=0;fillColor=none;top=0;left=0;bottom=0;right=0;editable=1;overflow=hidden;fontSize=15;" vertex="1" parent="08mX7MxqLNH22tpMBtNo-184">
          <mxGeometry width="30" height="30" as="geometry">
            <mxRectangle width="30" height="30" as="alternateBounds" />
          </mxGeometry>
        </mxCell>
        <mxCell id="08mX7MxqLNH22tpMBtNo-186" value="Longitud" style="shape=partialRectangle;connectable=0;fillColor=none;top=0;left=0;bottom=0;right=0;align=left;spacingLeft=6;overflow=hidden;fontSize=15;" vertex="1" parent="08mX7MxqLNH22tpMBtNo-184">
          <mxGeometry x="30" width="97.5" height="30" as="geometry">
            <mxRectangle width="97.5" height="30" as="alternateBounds" />
          </mxGeometry>
        </mxCell>
        <mxCell id="08mX7MxqLNH22tpMBtNo-11" value="LugaresCercanos" style="shape=table;startSize=30;container=1;collapsible=1;childLayout=tableLayout;fixedRows=1;rowLines=0;fontStyle=1;align=center;resizeLast=1;fontSize=15;" vertex="1" parent="1">
          <mxGeometry x="558.25" y="20" width="201.75" height="270" as="geometry" />
        </mxCell>
        <mxCell id="08mX7MxqLNH22tpMBtNo-12" value="" style="shape=tableRow;horizontal=0;startSize=0;swimlaneHead=0;swimlaneBody=0;fillColor=none;collapsible=0;dropTarget=0;points=[[0,0.5],[1,0.5]];portConstraint=eastwest;top=0;left=0;right=0;bottom=1;fontSize=15;" vertex="1" parent="08mX7MxqLNH22tpMBtNo-11">
          <mxGeometry y="30" width="201.75" height="30" as="geometry" />
        </mxCell>
        <mxCell id="08mX7MxqLNH22tpMBtNo-13" value="PK" style="shape=partialRectangle;connectable=0;fillColor=none;top=0;left=0;bottom=0;right=0;fontStyle=1;overflow=hidden;fontSize=15;" vertex="1" parent="08mX7MxqLNH22tpMBtNo-12">
          <mxGeometry width="30" height="30" as="geometry">
            <mxRectangle width="30" height="30" as="alternateBounds" />
          </mxGeometry>
        </mxCell>
        <mxCell id="08mX7MxqLNH22tpMBtNo-14" value="Lugar_Place_ID" style="shape=partialRectangle;connectable=0;fillColor=none;top=0;left=0;bottom=0;right=0;align=left;spacingLeft=6;fontStyle=5;overflow=hidden;fontSize=15;" vertex="1" parent="08mX7MxqLNH22tpMBtNo-12">
          <mxGeometry x="30" width="171.75" height="30" as="geometry">
            <mxRectangle width="171.75" height="30" as="alternateBounds" />
          </mxGeometry>
        </mxCell>
        <mxCell id="08mX7MxqLNH22tpMBtNo-202" style="shape=tableRow;horizontal=0;startSize=0;swimlaneHead=0;swimlaneBody=0;fillColor=none;collapsible=0;dropTarget=0;points=[[0,0.5],[1,0.5]];portConstraint=eastwest;top=0;left=0;right=0;bottom=0;fontSize=15;" vertex="1" parent="08mX7MxqLNH22tpMBtNo-11">
          <mxGeometry y="60" width="201.75" height="30" as="geometry" />
        </mxCell>
        <mxCell id="08mX7MxqLNH22tpMBtNo-203" style="shape=partialRectangle;connectable=0;fillColor=none;top=0;left=0;bottom=0;right=0;editable=1;overflow=hidden;fontSize=15;" vertex="1" parent="08mX7MxqLNH22tpMBtNo-202">
          <mxGeometry width="30" height="30" as="geometry">
            <mxRectangle width="30" height="30" as="alternateBounds" />
          </mxGeometry>
        </mxCell>
        <mxCell id="08mX7MxqLNH22tpMBtNo-204" value="Titulo_Inmueble" style="shape=partialRectangle;connectable=0;fillColor=none;top=0;left=0;bottom=0;right=0;align=left;spacingLeft=6;overflow=hidden;fontSize=15;" vertex="1" parent="08mX7MxqLNH22tpMBtNo-202">
          <mxGeometry x="30" width="171.75" height="30" as="geometry">
            <mxRectangle width="171.75" height="30" as="alternateBounds" />
          </mxGeometry>
        </mxCell>
        <mxCell id="08mX7MxqLNH22tpMBtNo-15" value="" style="shape=tableRow;horizontal=0;startSize=0;swimlaneHead=0;swimlaneBody=0;fillColor=none;collapsible=0;dropTarget=0;points=[[0,0.5],[1,0.5]];portConstraint=eastwest;top=0;left=0;right=0;bottom=0;fontSize=15;" vertex="1" parent="08mX7MxqLNH22tpMBtNo-11">
          <mxGeometry y="90" width="201.75" height="30" as="geometry" />
        </mxCell>
        <mxCell id="08mX7MxqLNH22tpMBtNo-16" value="" style="shape=partialRectangle;connectable=0;fillColor=none;top=0;left=0;bottom=0;right=0;editable=1;overflow=hidden;fontSize=15;" vertex="1" parent="08mX7MxqLNH22tpMBtNo-15">
          <mxGeometry width="30" height="30" as="geometry">
            <mxRectangle width="30" height="30" as="alternateBounds" />
          </mxGeometry>
        </mxCell>
        <mxCell id="08mX7MxqLNH22tpMBtNo-17" value="Direccion_Inmueble" style="shape=partialRectangle;connectable=0;fillColor=none;top=0;left=0;bottom=0;right=0;align=left;spacingLeft=6;overflow=hidden;fontSize=15;" vertex="1" parent="08mX7MxqLNH22tpMBtNo-15">
          <mxGeometry x="30" width="171.75" height="30" as="geometry">
            <mxRectangle width="171.75" height="30" as="alternateBounds" />
          </mxGeometry>
        </mxCell>
        <mxCell id="08mX7MxqLNH22tpMBtNo-18" value="" style="shape=tableRow;horizontal=0;startSize=0;swimlaneHead=0;swimlaneBody=0;fillColor=none;collapsible=0;dropTarget=0;points=[[0,0.5],[1,0.5]];portConstraint=eastwest;top=0;left=0;right=0;bottom=0;fontSize=15;" vertex="1" parent="08mX7MxqLNH22tpMBtNo-11">
          <mxGeometry y="120" width="201.75" height="30" as="geometry" />
        </mxCell>
        <mxCell id="08mX7MxqLNH22tpMBtNo-19" value="" style="shape=partialRectangle;connectable=0;fillColor=none;top=0;left=0;bottom=0;right=0;editable=1;overflow=hidden;fontSize=15;" vertex="1" parent="08mX7MxqLNH22tpMBtNo-18">
          <mxGeometry width="30" height="30" as="geometry">
            <mxRectangle width="30" height="30" as="alternateBounds" />
          </mxGeometry>
        </mxCell>
        <mxCell id="08mX7MxqLNH22tpMBtNo-20" value="Latitud" style="shape=partialRectangle;connectable=0;fillColor=none;top=0;left=0;bottom=0;right=0;align=left;spacingLeft=6;overflow=hidden;fontSize=15;" vertex="1" parent="08mX7MxqLNH22tpMBtNo-18">
          <mxGeometry x="30" width="171.75" height="30" as="geometry">
            <mxRectangle width="171.75" height="30" as="alternateBounds" />
          </mxGeometry>
        </mxCell>
        <mxCell id="08mX7MxqLNH22tpMBtNo-21" value="" style="shape=tableRow;horizontal=0;startSize=0;swimlaneHead=0;swimlaneBody=0;fillColor=none;collapsible=0;dropTarget=0;points=[[0,0.5],[1,0.5]];portConstraint=eastwest;top=0;left=0;right=0;bottom=0;fontSize=15;" vertex="1" parent="08mX7MxqLNH22tpMBtNo-11">
          <mxGeometry y="150" width="201.75" height="30" as="geometry" />
        </mxCell>
        <mxCell id="08mX7MxqLNH22tpMBtNo-22" value="" style="shape=partialRectangle;connectable=0;fillColor=none;top=0;left=0;bottom=0;right=0;editable=1;overflow=hidden;fontSize=15;" vertex="1" parent="08mX7MxqLNH22tpMBtNo-21">
          <mxGeometry width="30" height="30" as="geometry">
            <mxRectangle width="30" height="30" as="alternateBounds" />
          </mxGeometry>
        </mxCell>
        <mxCell id="08mX7MxqLNH22tpMBtNo-23" value="Longitud" style="shape=partialRectangle;connectable=0;fillColor=none;top=0;left=0;bottom=0;right=0;align=left;spacingLeft=6;overflow=hidden;fontSize=15;" vertex="1" parent="08mX7MxqLNH22tpMBtNo-21">
          <mxGeometry x="30" width="171.75" height="30" as="geometry">
            <mxRectangle width="171.75" height="30" as="alternateBounds" />
          </mxGeometry>
        </mxCell>
        <mxCell id="08mX7MxqLNH22tpMBtNo-190" style="shape=tableRow;horizontal=0;startSize=0;swimlaneHead=0;swimlaneBody=0;fillColor=none;collapsible=0;dropTarget=0;points=[[0,0.5],[1,0.5]];portConstraint=eastwest;top=0;left=0;right=0;bottom=0;fontSize=15;" vertex="1" parent="08mX7MxqLNH22tpMBtNo-11">
          <mxGeometry y="180" width="201.75" height="30" as="geometry" />
        </mxCell>
        <mxCell id="08mX7MxqLNH22tpMBtNo-191" style="shape=partialRectangle;connectable=0;fillColor=none;top=0;left=0;bottom=0;right=0;editable=1;overflow=hidden;fontSize=15;" vertex="1" parent="08mX7MxqLNH22tpMBtNo-190">
          <mxGeometry width="30" height="30" as="geometry">
            <mxRectangle width="30" height="30" as="alternateBounds" />
          </mxGeometry>
        </mxCell>
        <mxCell id="08mX7MxqLNH22tpMBtNo-192" value="Rubro" style="shape=partialRectangle;connectable=0;fillColor=none;top=0;left=0;bottom=0;right=0;align=left;spacingLeft=6;overflow=hidden;fontSize=15;" vertex="1" parent="08mX7MxqLNH22tpMBtNo-190">
          <mxGeometry x="30" width="171.75" height="30" as="geometry">
            <mxRectangle width="171.75" height="30" as="alternateBounds" />
          </mxGeometry>
        </mxCell>
        <mxCell id="08mX7MxqLNH22tpMBtNo-205" style="shape=tableRow;horizontal=0;startSize=0;swimlaneHead=0;swimlaneBody=0;fillColor=none;collapsible=0;dropTarget=0;points=[[0,0.5],[1,0.5]];portConstraint=eastwest;top=0;left=0;right=0;bottom=0;fontSize=15;" vertex="1" parent="08mX7MxqLNH22tpMBtNo-11">
          <mxGeometry y="210" width="201.75" height="30" as="geometry" />
        </mxCell>
        <mxCell id="08mX7MxqLNH22tpMBtNo-206" style="shape=partialRectangle;connectable=0;fillColor=none;top=0;left=0;bottom=0;right=0;editable=1;overflow=hidden;fontSize=15;" vertex="1" parent="08mX7MxqLNH22tpMBtNo-205">
          <mxGeometry width="30" height="30" as="geometry">
            <mxRectangle width="30" height="30" as="alternateBounds" />
          </mxGeometry>
        </mxCell>
        <mxCell id="08mX7MxqLNH22tpMBtNo-207" value="Nombre" style="shape=partialRectangle;connectable=0;fillColor=none;top=0;left=0;bottom=0;right=0;align=left;spacingLeft=6;overflow=hidden;fontSize=15;" vertex="1" parent="08mX7MxqLNH22tpMBtNo-205">
          <mxGeometry x="30" width="171.75" height="30" as="geometry">
            <mxRectangle width="171.75" height="30" as="alternateBounds" />
          </mxGeometry>
        </mxCell>
        <mxCell id="08mX7MxqLNH22tpMBtNo-193" style="shape=tableRow;horizontal=0;startSize=0;swimlaneHead=0;swimlaneBody=0;fillColor=none;collapsible=0;dropTarget=0;points=[[0,0.5],[1,0.5]];portConstraint=eastwest;top=0;left=0;right=0;bottom=0;fontSize=15;" vertex="1" parent="08mX7MxqLNH22tpMBtNo-11">
          <mxGeometry y="240" width="201.75" height="30" as="geometry" />
        </mxCell>
        <mxCell id="08mX7MxqLNH22tpMBtNo-194" style="shape=partialRectangle;connectable=0;fillColor=none;top=0;left=0;bottom=0;right=0;editable=1;overflow=hidden;fontSize=15;" vertex="1" parent="08mX7MxqLNH22tpMBtNo-193">
          <mxGeometry width="30" height="30" as="geometry">
            <mxRectangle width="30" height="30" as="alternateBounds" />
          </mxGeometry>
        </mxCell>
        <mxCell id="08mX7MxqLNH22tpMBtNo-195" value="Direccion" style="shape=partialRectangle;connectable=0;fillColor=none;top=0;left=0;bottom=0;right=0;align=left;spacingLeft=6;overflow=hidden;fontSize=15;" vertex="1" parent="08mX7MxqLNH22tpMBtNo-193">
          <mxGeometry x="30" width="171.75" height="30" as="geometry">
            <mxRectangle width="171.75" height="30" as="alternateBounds" />
          </mxGeometry>
        </mxCell>
        <mxCell id="08mX7MxqLNH22tpMBtNo-49" value="Nub" style="shape=table;startSize=30;container=1;collapsible=1;childLayout=tableLayout;fixedRows=1;rowLines=0;fontStyle=1;align=center;resizeLast=1;fontSize=15;" vertex="1" parent="1">
          <mxGeometry x="310" y="50" width="180" height="120" as="geometry" />
        </mxCell>
        <mxCell id="08mX7MxqLNH22tpMBtNo-50" value="" style="shape=tableRow;horizontal=0;startSize=0;swimlaneHead=0;swimlaneBody=0;fillColor=none;collapsible=0;dropTarget=0;points=[[0,0.5],[1,0.5]];portConstraint=eastwest;top=0;left=0;right=0;bottom=1;fontSize=15;" vertex="1" parent="08mX7MxqLNH22tpMBtNo-49">
          <mxGeometry y="30" width="180" height="30" as="geometry" />
        </mxCell>
        <mxCell id="08mX7MxqLNH22tpMBtNo-51" value="PK" style="shape=partialRectangle;connectable=0;fillColor=none;top=0;left=0;bottom=0;right=0;fontStyle=1;overflow=hidden;fontSize=15;" vertex="1" parent="08mX7MxqLNH22tpMBtNo-50">
          <mxGeometry width="30" height="30" as="geometry">
            <mxRectangle width="30" height="30" as="alternateBounds" />
          </mxGeometry>
        </mxCell>
        <mxCell id="08mX7MxqLNH22tpMBtNo-52" value="Id" style="shape=partialRectangle;connectable=0;fillColor=none;top=0;left=0;bottom=0;right=0;align=left;spacingLeft=6;fontStyle=5;overflow=hidden;fontSize=15;" vertex="1" parent="08mX7MxqLNH22tpMBtNo-50">
          <mxGeometry x="30" width="150" height="30" as="geometry">
            <mxRectangle width="150" height="30" as="alternateBounds" />
          </mxGeometry>
        </mxCell>
        <mxCell id="08mX7MxqLNH22tpMBtNo-53" value="" style="shape=tableRow;horizontal=0;startSize=0;swimlaneHead=0;swimlaneBody=0;fillColor=none;collapsible=0;dropTarget=0;points=[[0,0.5],[1,0.5]];portConstraint=eastwest;top=0;left=0;right=0;bottom=0;fontSize=15;" vertex="1" parent="08mX7MxqLNH22tpMBtNo-49">
          <mxGeometry y="60" width="180" height="30" as="geometry" />
        </mxCell>
        <mxCell id="08mX7MxqLNH22tpMBtNo-54" value="FK" style="shape=partialRectangle;connectable=0;fillColor=none;top=0;left=0;bottom=0;right=0;editable=1;overflow=hidden;fontSize=15;" vertex="1" parent="08mX7MxqLNH22tpMBtNo-53">
          <mxGeometry width="30" height="30" as="geometry">
            <mxRectangle width="30" height="30" as="alternateBounds" />
          </mxGeometry>
        </mxCell>
        <mxCell id="08mX7MxqLNH22tpMBtNo-55" value="Place_ID_Inmueble" style="shape=partialRectangle;connectable=0;fillColor=none;top=0;left=0;bottom=0;right=0;align=left;spacingLeft=6;overflow=hidden;fontSize=15;" vertex="1" parent="08mX7MxqLNH22tpMBtNo-53">
          <mxGeometry x="30" width="150" height="30" as="geometry">
            <mxRectangle width="150" height="30" as="alternateBounds" />
          </mxGeometry>
        </mxCell>
        <mxCell id="08mX7MxqLNH22tpMBtNo-56" value="" style="shape=tableRow;horizontal=0;startSize=0;swimlaneHead=0;swimlaneBody=0;fillColor=none;collapsible=0;dropTarget=0;points=[[0,0.5],[1,0.5]];portConstraint=eastwest;top=0;left=0;right=0;bottom=0;fontSize=15;" vertex="1" parent="08mX7MxqLNH22tpMBtNo-49">
          <mxGeometry y="90" width="180" height="30" as="geometry" />
        </mxCell>
        <mxCell id="08mX7MxqLNH22tpMBtNo-57" value="FK" style="shape=partialRectangle;connectable=0;fillColor=none;top=0;left=0;bottom=0;right=0;editable=1;overflow=hidden;fontSize=15;" vertex="1" parent="08mX7MxqLNH22tpMBtNo-56">
          <mxGeometry width="30" height="30" as="geometry">
            <mxRectangle width="30" height="30" as="alternateBounds" />
          </mxGeometry>
        </mxCell>
        <mxCell id="08mX7MxqLNH22tpMBtNo-58" value="Lugar_Place_ID" style="shape=partialRectangle;connectable=0;fillColor=none;top=0;left=0;bottom=0;right=0;align=left;spacingLeft=6;overflow=hidden;fontSize=15;" vertex="1" parent="08mX7MxqLNH22tpMBtNo-56">
          <mxGeometry x="30" width="150" height="30" as="geometry">
            <mxRectangle width="150" height="30" as="alternateBounds" />
          </mxGeometry>
        </mxCell>
        <mxCell id="08mX7MxqLNH22tpMBtNo-60" value="" style="edgeStyle=entityRelationEdgeStyle;fontSize=15;html=1;endArrow=ERoneToMany;rounded=0;entryX=1;entryY=0.5;entryDx=0;entryDy=0;exitX=0;exitY=0.5;exitDx=0;exitDy=0;" edge="1" parent="1" source="08mX7MxqLNH22tpMBtNo-12" target="08mX7MxqLNH22tpMBtNo-56">
          <mxGeometry width="100" height="100" relative="1" as="geometry">
            <mxPoint x="544.3700000000001" y="145" as="sourcePoint" />
            <mxPoint x="484.25" y="235" as="targetPoint" />
          </mxGeometry>
        </mxCell>
        <mxCell id="08mX7MxqLNH22tpMBtNo-61" value="" style="edgeStyle=entityRelationEdgeStyle;fontSize=15;html=1;endArrow=ERoneToMany;rounded=0;entryX=0.009;entryY=0.311;entryDx=0;entryDy=0;exitX=1;exitY=0.5;exitDx=0;exitDy=0;entryPerimeter=0;" edge="1" parent="1" source="08mX7MxqLNH22tpMBtNo-2" target="08mX7MxqLNH22tpMBtNo-53">
          <mxGeometry width="100" height="100" relative="1" as="geometry">
            <mxPoint x="554.3700000000001" y="155" as="sourcePoint" />
            <mxPoint x="494.25" y="245" as="targetPoint" />
          </mxGeometry>
        </mxCell>
      </root>
    </mxGraphModel>
  </diagram>
  <diagram id="rPsJtwyi5l7N-g_G4oGR" name="ModeloEntidadRelacion">
    <mxGraphModel dx="1050" dy="522" grid="1" gridSize="10" guides="1" tooltips="1" connect="1" arrows="1" fold="1" page="1" pageScale="1" pageWidth="827" pageHeight="1169" math="0" shadow="0">
      <root>
        <mxCell id="0" />
        <mxCell id="1" parent="0" />
        <mxCell id="eM03RhgeS5QhPbCY3h_i-1" value="" style="rounded=0;whiteSpace=wrap;html=1;" vertex="1" parent="1">
          <mxGeometry x="10" y="10" width="810" height="370" as="geometry" />
        </mxCell>
        <mxCell id="YEpOgRpCWQ7Yfer51l4k-1" value="Inmuebles" style="rounded=0;whiteSpace=wrap;html=1;fillColor=#f5f5f5;fontColor=#333333;strokeColor=#666666;fontSize=15;" vertex="1" parent="1">
          <mxGeometry x="202.25" y="162.5" width="80" height="30" as="geometry" />
        </mxCell>
        <mxCell id="YEpOgRpCWQ7Yfer51l4k-2" value="LugaresCercanos" style="rounded=0;whiteSpace=wrap;html=1;fillColor=#f5f5f5;fontColor=#333333;strokeColor=#666666;fontSize=15;" vertex="1" parent="1">
          <mxGeometry x="516.25" y="162.5" width="138.75" height="30" as="geometry" />
        </mxCell>
        <mxCell id="YEpOgRpCWQ7Yfer51l4k-3" value="" style="endArrow=none;html=1;rounded=0;fontSize=15;entryX=1;entryY=0.5;entryDx=0;entryDy=0;exitX=0;exitY=0.5;exitDx=0;exitDy=0;" edge="1" parent="1" source="YEpOgRpCWQ7Yfer51l4k-5" target="YEpOgRpCWQ7Yfer51l4k-1">
          <mxGeometry width="50" height="50" relative="1" as="geometry">
            <mxPoint x="232.25" y="302.5" as="sourcePoint" />
            <mxPoint x="282.25" y="252.5" as="targetPoint" />
          </mxGeometry>
        </mxCell>
        <mxCell id="YEpOgRpCWQ7Yfer51l4k-4" value="" style="endArrow=none;html=1;rounded=0;fontSize=15;entryX=1;entryY=0.5;entryDx=0;entryDy=0;exitX=0;exitY=0.5;exitDx=0;exitDy=0;" edge="1" parent="1" source="YEpOgRpCWQ7Yfer51l4k-2" target="YEpOgRpCWQ7Yfer51l4k-5">
          <mxGeometry width="50" height="50" relative="1" as="geometry">
            <mxPoint x="281.25" y="372.5" as="sourcePoint" />
            <mxPoint x="481.25" y="177.5" as="targetPoint" />
          </mxGeometry>
        </mxCell>
        <mxCell id="YEpOgRpCWQ7Yfer51l4k-5" value="&lt;font&gt;tener&lt;/font&gt;" style="rhombus;whiteSpace=wrap;html=1;fontSize=15;fillColor=#fff2cc;strokeColor=#d6b656;" vertex="1" parent="1">
          <mxGeometry x="365.75" y="150" width="61.5" height="55" as="geometry" />
        </mxCell>
        <mxCell id="YEpOgRpCWQ7Yfer51l4k-6" value="&lt;font&gt;M:N&lt;/font&gt;" style="text;html=1;align=center;verticalAlign=middle;resizable=0;points=[];autosize=1;strokeColor=none;fillColor=none;fontSize=15;" vertex="1" parent="1">
          <mxGeometry x="371.75" y="202.5" width="50" height="30" as="geometry" />
        </mxCell>
        <mxCell id="YEpOgRpCWQ7Yfer51l4k-7" value="&lt;font&gt;M&lt;/font&gt;" style="text;html=1;align=center;verticalAlign=middle;resizable=0;points=[];autosize=1;strokeColor=none;fillColor=none;fontSize=15;" vertex="1" parent="1">
          <mxGeometry x="272.25" y="172.5" width="40" height="30" as="geometry" />
        </mxCell>
        <mxCell id="YEpOgRpCWQ7Yfer51l4k-8" value="&lt;font&gt;1&lt;/font&gt;" style="text;html=1;align=center;verticalAlign=middle;resizable=0;points=[];autosize=1;strokeColor=none;fillColor=none;fontSize=15;" vertex="1" parent="1">
          <mxGeometry x="277.25" y="152.5" width="30" height="30" as="geometry" />
        </mxCell>
        <mxCell id="YEpOgRpCWQ7Yfer51l4k-9" value="&lt;font&gt;N&lt;/font&gt;" style="text;html=1;align=center;verticalAlign=middle;resizable=0;points=[];autosize=1;strokeColor=none;fillColor=none;fontSize=15;" vertex="1" parent="1">
          <mxGeometry x="486.25" y="152.5" width="30" height="30" as="geometry" />
        </mxCell>
        <mxCell id="YEpOgRpCWQ7Yfer51l4k-10" value="&lt;font&gt;1&lt;/font&gt;" style="text;html=1;align=center;verticalAlign=middle;resizable=0;points=[];autosize=1;strokeColor=none;fillColor=none;fontSize=15;" vertex="1" parent="1">
          <mxGeometry x="486.25" y="172.5" width="30" height="30" as="geometry" />
        </mxCell>
        <mxCell id="YEpOgRpCWQ7Yfer51l4k-11" value="Lugar_Place_ID&lt;div&gt;(pk)&lt;/div&gt;" style="ellipse;whiteSpace=wrap;html=1;fontSize=15;fillColor=#f8cecc;strokeColor=#b85450;" vertex="1" parent="1">
          <mxGeometry x="428.25" y="252.5" width="133" height="55" as="geometry" />
        </mxCell>
        <mxCell id="YEpOgRpCWQ7Yfer51l4k-12" value="" style="endArrow=none;html=1;rounded=0;fontSize=15;entryX=0.5;entryY=1;entryDx=0;entryDy=0;exitX=0.5;exitY=0;exitDx=0;exitDy=0;" edge="1" parent="1" source="YEpOgRpCWQ7Yfer51l4k-11" target="YEpOgRpCWQ7Yfer51l4k-2">
          <mxGeometry width="50" height="50" relative="1" as="geometry">
            <mxPoint x="337.25" y="372.5" as="sourcePoint" />
            <mxPoint x="527.25" y="352.5" as="targetPoint" />
          </mxGeometry>
        </mxCell>
        <mxCell id="YEpOgRpCWQ7Yfer51l4k-13" value="Titulo_Inmueble" style="ellipse;whiteSpace=wrap;html=1;fontSize=15;" vertex="1" parent="1">
          <mxGeometry x="511.25" y="87.5" width="113.62" height="45" as="geometry" />
        </mxCell>
        <mxCell id="YEpOgRpCWQ7Yfer51l4k-14" value="" style="endArrow=none;html=1;rounded=0;fontSize=15;entryX=0.5;entryY=0;entryDx=0;entryDy=0;exitX=0.5;exitY=1;exitDx=0;exitDy=0;" edge="1" parent="1" source="YEpOgRpCWQ7Yfer51l4k-13" target="YEpOgRpCWQ7Yfer51l4k-2">
          <mxGeometry width="50" height="50" relative="1" as="geometry">
            <mxPoint x="541.25" y="282.5" as="sourcePoint" />
            <mxPoint x="527.25" y="352.5" as="targetPoint" />
          </mxGeometry>
        </mxCell>
        <mxCell id="YEpOgRpCWQ7Yfer51l4k-15" value="Direccion_Inmueble" style="ellipse;whiteSpace=wrap;html=1;fontSize=15;" vertex="1" parent="1">
          <mxGeometry x="608.75" y="307.5" width="153" height="50" as="geometry" />
        </mxCell>
        <mxCell id="YEpOgRpCWQ7Yfer51l4k-16" value="" style="endArrow=none;html=1;rounded=0;fontSize=15;entryX=0.5;entryY=1;entryDx=0;entryDy=0;exitX=0.5;exitY=0;exitDx=0;exitDy=0;" edge="1" parent="1" source="YEpOgRpCWQ7Yfer51l4k-15" target="YEpOgRpCWQ7Yfer51l4k-2">
          <mxGeometry width="50" height="50" relative="1" as="geometry">
            <mxPoint x="477.25" y="322.5" as="sourcePoint" />
            <mxPoint x="527.25" y="352.5" as="targetPoint" />
          </mxGeometry>
        </mxCell>
        <mxCell id="YEpOgRpCWQ7Yfer51l4k-17" value="Titulo" style="ellipse;whiteSpace=wrap;html=1;fontSize=15;" vertex="1" parent="1">
          <mxGeometry x="40" y="230" width="60" height="30" as="geometry" />
        </mxCell>
        <mxCell id="YEpOgRpCWQ7Yfer51l4k-18" value="" style="endArrow=none;html=1;rounded=0;fontSize=15;entryX=0.5;entryY=1;entryDx=0;entryDy=0;exitX=0.5;exitY=0;exitDx=0;exitDy=0;" edge="1" parent="1">
          <mxGeometry width="50" height="50" relative="1" as="geometry">
            <mxPoint x="68.25" y="252.5" as="sourcePoint" />
            <mxPoint x="242.25" y="192.5" as="targetPoint" />
          </mxGeometry>
        </mxCell>
        <mxCell id="YEpOgRpCWQ7Yfer51l4k-19" value="Place_ID&lt;div&gt;(pk)&lt;/div&gt;" style="ellipse;whiteSpace=wrap;html=1;fontSize=15;fillColor=#f8cecc;strokeColor=#b85450;" vertex="1" parent="1">
          <mxGeometry x="88.25" y="265" width="100" height="47.5" as="geometry" />
        </mxCell>
        <mxCell id="YEpOgRpCWQ7Yfer51l4k-20" value="" style="endArrow=none;html=1;rounded=0;fontSize=15;exitX=0.5;exitY=0;exitDx=0;exitDy=0;" edge="1" parent="1" source="YEpOgRpCWQ7Yfer51l4k-19">
          <mxGeometry width="50" height="50" relative="1" as="geometry">
            <mxPoint x="42.25" y="352.5" as="sourcePoint" />
            <mxPoint x="242.25" y="192.5" as="targetPoint" />
          </mxGeometry>
        </mxCell>
        <mxCell id="YEpOgRpCWQ7Yfer51l4k-21" value="Moneda" style="ellipse;whiteSpace=wrap;html=1;fontSize=15;" vertex="1" parent="1">
          <mxGeometry x="206.25" y="277.5" width="62" height="35" as="geometry" />
        </mxCell>
        <mxCell id="YEpOgRpCWQ7Yfer51l4k-22" value="" style="endArrow=none;html=1;rounded=0;fontSize=15;entryX=0.5;entryY=1;entryDx=0;entryDy=0;exitX=0.5;exitY=0;exitDx=0;exitDy=0;" edge="1" parent="1" source="YEpOgRpCWQ7Yfer51l4k-1" target="YEpOgRpCWQ7Yfer51l4k-39">
          <mxGeometry width="50" height="50" relative="1" as="geometry">
            <mxPoint x="118.25" y="182.5" as="sourcePoint" />
            <mxPoint x="272.25" y="137.5" as="targetPoint" />
            <Array as="points" />
          </mxGeometry>
        </mxCell>
        <mxCell id="YEpOgRpCWQ7Yfer51l4k-24" value="&lt;div&gt;Latitud&lt;/div&gt;" style="ellipse;whiteSpace=wrap;html=1;fontSize=15;" vertex="1" parent="1">
          <mxGeometry x="628.75" y="82.5" width="60" height="30" as="geometry" />
        </mxCell>
        <mxCell id="YEpOgRpCWQ7Yfer51l4k-25" value="&lt;div&gt;Longitud&lt;/div&gt;" style="ellipse;whiteSpace=wrap;html=1;fontSize=15;" vertex="1" parent="1">
          <mxGeometry x="688.75" y="65" width="73" height="40" as="geometry" />
        </mxCell>
        <mxCell id="YEpOgRpCWQ7Yfer51l4k-26" value="&lt;div&gt;Rubro&lt;/div&gt;" style="ellipse;whiteSpace=wrap;html=1;fontSize=15;" vertex="1" parent="1">
          <mxGeometry x="701.75" y="112.5" width="60" height="30" as="geometry" />
        </mxCell>
        <mxCell id="YEpOgRpCWQ7Yfer51l4k-27" value="&lt;div&gt;Nombre&lt;/div&gt;" style="ellipse;whiteSpace=wrap;html=1;fontSize=15;" vertex="1" parent="1">
          <mxGeometry x="678.25" y="273.75" width="60" height="30" as="geometry" />
        </mxCell>
        <mxCell id="YEpOgRpCWQ7Yfer51l4k-28" value="&lt;div&gt;Dirección&lt;/div&gt;" style="ellipse;whiteSpace=wrap;html=1;fontSize=15;" vertex="1" parent="1">
          <mxGeometry x="525.75" y="322.5" width="81" height="30" as="geometry" />
        </mxCell>
        <mxCell id="YEpOgRpCWQ7Yfer51l4k-29" value="" style="endArrow=none;html=1;rounded=0;fontSize=15;entryX=0.5;entryY=0;entryDx=0;entryDy=0;exitX=0.5;exitY=1;exitDx=0;exitDy=0;" edge="1" parent="1" source="YEpOgRpCWQ7Yfer51l4k-24" target="YEpOgRpCWQ7Yfer51l4k-2">
          <mxGeometry width="50" height="50" relative="1" as="geometry">
            <mxPoint x="617.25" y="272.5" as="sourcePoint" />
            <mxPoint x="576.25" y="202.5" as="targetPoint" />
          </mxGeometry>
        </mxCell>
        <mxCell id="YEpOgRpCWQ7Yfer51l4k-30" value="" style="endArrow=none;html=1;rounded=0;fontSize=15;entryX=0.5;entryY=0;entryDx=0;entryDy=0;exitX=0.5;exitY=1;exitDx=0;exitDy=0;" edge="1" parent="1" source="YEpOgRpCWQ7Yfer51l4k-25" target="YEpOgRpCWQ7Yfer51l4k-2">
          <mxGeometry width="50" height="50" relative="1" as="geometry">
            <mxPoint x="640.25" y="110.5" as="sourcePoint" />
            <mxPoint x="576.25" y="172.5" as="targetPoint" />
          </mxGeometry>
        </mxCell>
        <mxCell id="YEpOgRpCWQ7Yfer51l4k-31" value="" style="endArrow=none;html=1;rounded=0;fontSize=15;entryX=0.5;entryY=0;entryDx=0;entryDy=0;exitX=0.5;exitY=1;exitDx=0;exitDy=0;" edge="1" parent="1" source="YEpOgRpCWQ7Yfer51l4k-26" target="YEpOgRpCWQ7Yfer51l4k-2">
          <mxGeometry width="50" height="50" relative="1" as="geometry">
            <mxPoint x="731.25" y="112.5" as="sourcePoint" />
            <mxPoint x="576.25" y="172.5" as="targetPoint" />
          </mxGeometry>
        </mxCell>
        <mxCell id="YEpOgRpCWQ7Yfer51l4k-32" value="" style="endArrow=none;html=1;rounded=0;fontSize=15;entryX=0.5;entryY=1;entryDx=0;entryDy=0;exitX=0.5;exitY=0;exitDx=0;exitDy=0;" edge="1" parent="1" source="YEpOgRpCWQ7Yfer51l4k-27" target="YEpOgRpCWQ7Yfer51l4k-2">
          <mxGeometry width="50" height="50" relative="1" as="geometry">
            <mxPoint x="541.25" y="312.5" as="sourcePoint" />
            <mxPoint x="576.25" y="202.5" as="targetPoint" />
          </mxGeometry>
        </mxCell>
        <mxCell id="YEpOgRpCWQ7Yfer51l4k-33" value="" style="endArrow=none;html=1;rounded=0;fontSize=15;entryX=0.5;entryY=1;entryDx=0;entryDy=0;exitX=0.5;exitY=0;exitDx=0;exitDy=0;" edge="1" parent="1" source="YEpOgRpCWQ7Yfer51l4k-28" target="YEpOgRpCWQ7Yfer51l4k-2">
          <mxGeometry width="50" height="50" relative="1" as="geometry">
            <mxPoint x="631.25" y="292.5" as="sourcePoint" />
            <mxPoint x="576.25" y="202.5" as="targetPoint" />
          </mxGeometry>
        </mxCell>
        <mxCell id="YEpOgRpCWQ7Yfer51l4k-34" value="" style="endArrow=none;html=1;rounded=0;fontSize=15;exitX=0.5;exitY=0;exitDx=0;exitDy=0;entryX=0.5;entryY=1;entryDx=0;entryDy=0;" edge="1" parent="1" source="YEpOgRpCWQ7Yfer51l4k-21" target="YEpOgRpCWQ7Yfer51l4k-1">
          <mxGeometry width="50" height="50" relative="1" as="geometry">
            <mxPoint x="112.25" y="257.5" as="sourcePoint" />
            <mxPoint x="272.25" y="232.5" as="targetPoint" />
          </mxGeometry>
        </mxCell>
        <mxCell id="YEpOgRpCWQ7Yfer51l4k-35" value="Precio" style="ellipse;whiteSpace=wrap;html=1;fontSize=15;" vertex="1" parent="1">
          <mxGeometry x="262.25" y="252.5" width="60" height="30" as="geometry" />
        </mxCell>
        <mxCell id="YEpOgRpCWQ7Yfer51l4k-36" value="Direccion" style="ellipse;whiteSpace=wrap;html=1;fontSize=15;" vertex="1" parent="1">
          <mxGeometry x="72.25" y="82.5" width="70" height="37.5" as="geometry" />
        </mxCell>
        <mxCell id="YEpOgRpCWQ7Yfer51l4k-37" value="Enlace" style="ellipse;whiteSpace=wrap;html=1;fontSize=15;" vertex="1" parent="1">
          <mxGeometry x="142.25" y="97.5" width="60" height="30" as="geometry" />
        </mxCell>
        <mxCell id="YEpOgRpCWQ7Yfer51l4k-38" value="&lt;div&gt;Latitud&lt;/div&gt;" style="ellipse;whiteSpace=wrap;html=1;fontSize=15;" vertex="1" parent="1">
          <mxGeometry x="162.25" y="62.5" width="60" height="30" as="geometry" />
        </mxCell>
        <mxCell id="YEpOgRpCWQ7Yfer51l4k-39" value="&lt;div&gt;Longitud&lt;/div&gt;" style="ellipse;whiteSpace=wrap;html=1;fontSize=15;" vertex="1" parent="1">
          <mxGeometry x="222.25" y="102.5" width="76" height="30" as="geometry" />
        </mxCell>
        <mxCell id="YEpOgRpCWQ7Yfer51l4k-40" value="" style="endArrow=none;html=1;rounded=0;fontSize=15;entryX=0.5;entryY=0;entryDx=0;entryDy=0;exitX=0.5;exitY=1;exitDx=0;exitDy=0;" edge="1" parent="1" source="YEpOgRpCWQ7Yfer51l4k-1" target="YEpOgRpCWQ7Yfer51l4k-35">
          <mxGeometry width="50" height="50" relative="1" as="geometry">
            <mxPoint x="252.25" y="212.5" as="sourcePoint" />
            <mxPoint x="282.25" y="147.5" as="targetPoint" />
            <Array as="points" />
          </mxGeometry>
        </mxCell>
        <mxCell id="YEpOgRpCWQ7Yfer51l4k-41" value="" style="endArrow=none;html=1;rounded=0;fontSize=15;entryX=0.5;entryY=1;entryDx=0;entryDy=0;exitX=0.5;exitY=0;exitDx=0;exitDy=0;" edge="1" parent="1" source="YEpOgRpCWQ7Yfer51l4k-1" target="YEpOgRpCWQ7Yfer51l4k-38">
          <mxGeometry width="50" height="50" relative="1" as="geometry">
            <mxPoint x="222.25" y="142.5" as="sourcePoint" />
            <mxPoint x="262.25" y="122.5" as="targetPoint" />
            <Array as="points" />
          </mxGeometry>
        </mxCell>
        <mxCell id="YEpOgRpCWQ7Yfer51l4k-42" value="" style="endArrow=none;html=1;rounded=0;fontSize=15;entryX=0.5;entryY=1;entryDx=0;entryDy=0;exitX=0.5;exitY=0;exitDx=0;exitDy=0;" edge="1" parent="1" source="YEpOgRpCWQ7Yfer51l4k-1" target="YEpOgRpCWQ7Yfer51l4k-37">
          <mxGeometry width="50" height="50" relative="1" as="geometry">
            <mxPoint x="252.25" y="172.5" as="sourcePoint" />
            <mxPoint x="175.25" y="132.5" as="targetPoint" />
            <Array as="points" />
          </mxGeometry>
        </mxCell>
        <mxCell id="YEpOgRpCWQ7Yfer51l4k-43" value="" style="endArrow=none;html=1;rounded=0;fontSize=15;entryX=0.5;entryY=1;entryDx=0;entryDy=0;exitX=0.5;exitY=0;exitDx=0;exitDy=0;" edge="1" parent="1" source="YEpOgRpCWQ7Yfer51l4k-1" target="YEpOgRpCWQ7Yfer51l4k-36">
          <mxGeometry width="50" height="50" relative="1" as="geometry">
            <mxPoint x="152.25" y="172.5" as="sourcePoint" />
            <mxPoint x="112.25" y="142.5" as="targetPoint" />
            <Array as="points" />
          </mxGeometry>
        </mxCell>
        <mxCell id="YEpOgRpCWQ7Yfer51l4k-44" style="edgeStyle=orthogonalEdgeStyle;rounded=0;orthogonalLoop=1;jettySize=auto;html=1;exitX=0.5;exitY=1;exitDx=0;exitDy=0;fontSize=15;" edge="1" parent="1" source="YEpOgRpCWQ7Yfer51l4k-27" target="YEpOgRpCWQ7Yfer51l4k-27">
          <mxGeometry relative="1" as="geometry" />
        </mxCell>
        <mxCell id="YEpOgRpCWQ7Yfer51l4k-45" value="Lugar_Place_ID&lt;div&gt;(fk)&lt;/div&gt;" style="ellipse;whiteSpace=wrap;html=1;fontSize=15;fillColor=#e1d5e7;strokeColor=#9673a6;" vertex="1" parent="1">
          <mxGeometry x="430.5" y="37.5" width="141.5" height="50" as="geometry" />
        </mxCell>
        <mxCell id="YEpOgRpCWQ7Yfer51l4k-46" value="" style="endArrow=none;html=1;rounded=0;fontSize=15;exitX=0.5;exitY=0;exitDx=0;exitDy=0;entryX=0.5;entryY=1;entryDx=0;entryDy=0;" edge="1" parent="1" source="YEpOgRpCWQ7Yfer51l4k-5" target="YEpOgRpCWQ7Yfer51l4k-45">
          <mxGeometry width="50" height="50" relative="1" as="geometry">
            <mxPoint x="398.75" y="132.5" as="sourcePoint" />
            <mxPoint x="443.75" y="2.919999999999959" as="targetPoint" />
          </mxGeometry>
        </mxCell>
        <mxCell id="YEpOgRpCWQ7Yfer51l4k-47" value="Place_ID_Inmueble&lt;div&gt;(fk)&lt;/div&gt;" style="ellipse;whiteSpace=wrap;html=1;fontSize=15;fillColor=#e1d5e7;strokeColor=#9673a6;" vertex="1" parent="1">
          <mxGeometry x="228.25" y="32.5" width="148" height="60" as="geometry" />
        </mxCell>
        <mxCell id="YEpOgRpCWQ7Yfer51l4k-48" value="" style="endArrow=none;html=1;rounded=0;fontSize=15;entryX=0.5;entryY=1;entryDx=0;entryDy=0;exitX=0.5;exitY=0;exitDx=0;exitDy=0;" edge="1" parent="1" source="YEpOgRpCWQ7Yfer51l4k-5" target="YEpOgRpCWQ7Yfer51l4k-47">
          <mxGeometry width="50" height="50" relative="1" as="geometry">
            <mxPoint x="392.25" y="152.5" as="sourcePoint" />
            <mxPoint x="458.75" y="82.91999999999996" as="targetPoint" />
          </mxGeometry>
        </mxCell>
        <mxCell id="YEpOgRpCWQ7Yfer51l4k-49" value="Id(pk)" style="ellipse;whiteSpace=wrap;html=1;fontSize=15;fillColor=#f8cecc;strokeColor=#b85450;" vertex="1" parent="1">
          <mxGeometry x="366.75" y="82.5" width="60" height="30" as="geometry" />
        </mxCell>
        <mxCell id="YEpOgRpCWQ7Yfer51l4k-50" value="" style="endArrow=none;html=1;rounded=0;fontSize=15;exitX=0.5;exitY=0;exitDx=0;exitDy=0;entryX=0.5;entryY=1;entryDx=0;entryDy=0;" edge="1" parent="1" source="YEpOgRpCWQ7Yfer51l4k-5" target="YEpOgRpCWQ7Yfer51l4k-49">
          <mxGeometry width="50" height="50" relative="1" as="geometry">
            <mxPoint x="398.75" y="132.5" as="sourcePoint" />
            <mxPoint x="503.75" y="177.5" as="targetPoint" />
          </mxGeometry>
        </mxCell>
      </root>
    </mxGraphModel>
  </diagram>
</mxfile>
